<svg width="1376" height="506" viewBox="0 0 1376 506" fill="none" xmlns="http://www.w3.org/2000/svg">
<g clip-path="url(#clip0_330_10)">
<path d="M63.5994 19.9213V221.79H329.922V19.9213H393.521V498.032H329.922V278.898H63.5994V498.032H0V19.9213H63.5994Z" fill="black"/>
<path d="M610.157 506C508.133 506 445.858 433.619 445.858 327.373C445.858 221.126 515.42 148.081 606.844 148.081C698.269 148.081 759.218 215.814 759.218 318.74V339.99H508.133C512.108 409.05 547.22 454.869 610.819 454.869C662.494 454.869 687.669 427.643 696.281 395.769H758.556C742.656 450.885 695.619 506 610.157 506ZM510.12 294.171H698.931C692.306 230.423 656.531 199.877 607.507 199.877C555.832 199.877 519.395 233.743 510.12 294.171Z" fill="black"/>
<path d="M872.505 0V498.032H811.555V0H872.505Z" fill="black"/>
<path d="M1004.34 0V498.032H943.392V0H1004.34Z" fill="black"/>
<path d="M1376 327.373C1376 438.268 1309.09 506 1216.34 506C1123.59 506 1056.68 438.268 1056.68 327.373C1056.68 216.478 1124.25 148.081 1216.34 148.081C1308.43 148.081 1376 216.478 1376 327.373ZM1314.39 327.373C1314.39 247.688 1276.63 199.877 1216.34 199.877C1156.05 199.877 1118.29 247.688 1118.29 327.373C1118.29 407.058 1156.71 454.205 1216.34 454.205C1275.96 454.205 1314.39 406.394 1314.39 327.373Z" fill="black"/>
</g>
<defs>
<clipPath id="clip0_330_10">
<rect width="1376" height="506" fill="white"/>
</clipPath>
</defs>
</svg>
